# xmcd
#
# Track frame offsets:
#	150
#	12554
#	30087
#	43674
#	56562
#	71950
#	88462
#	100637
#	112365
#	126438
#
# Disc length: 1899 seconds
#
# Revision: 0
# Processed by: cddbd v1.5.2PL0 Copyright (c) Steve Scherf et al.
# Submitted via: FairStars CD Ripper 1.90
#
DISCID=9007690a
DTITLE=Merle Haggard - 20 #1 Hits! [CD2]
DYEAR=2008
DGENRE=Country
TTITLE0=If We Make It Through December
TTITLE1=I Think I'll Just Stay Here And Drink
TTITLE2=Big City
TTITLE3=Let's Chase Each Other Around The Room
TTITLE4=Twinkle, Twinkle Lucky Star
TTITLE5=Daddy Frank (The Guitar Man)
TTITLE6=Everybody's Had The Blues
TTITLE7=Carolyn
TTITLE8=Always Wanting You
TTITLE9=It's Not Love (But It's Not Bad)
EXTD=
EXTT0=
EXTT1=
EXTT2=
EXTT3=
EXTT4=
EXTT5=
EXTT6=
EXTT7=
EXTT8=
EXTT9=
PLAYORDER=
